<?xml version="1.0" encoding="utf-8"?>
<!-- Generator: Adobe Illustrator 19.2.1, SVG Export Plug-In . SVG Version: 6.00 Build 0)  -->
<svg version="1.1" id="Layer_1" xmlns="http://www.w3.org/2000/svg" xmlns:xlink="http://www.w3.org/1999/xlink" x="0px" y="0px"
	 viewBox="0 0 177.2 45" style="enable-background:new 0 0 177.2 45;" xml:space="preserve">
<style type="text/css">
	.st0{fill:#231F20;}
	.st1{fill:#EA2127;}
</style>
<g>
	<g>
		<path class="st0" d="M78.4,9c-17.7,0-26.6,7.7-26.6,18s8.8,18,26.6,18S105,37.3,105,27S96.1,9,78.4,9z M78.4,36.4
			c-10,0-15.4-4-15.4-9.4s5.4-9.4,15.4-9.4s15.4,4,15.4,9.4S88.4,36.4,78.4,36.4z"/>
		<rect x="166.2" y="10.1" class="st0" width="11" height="33.9"/>
		<path class="st0" d="M158.1,21.9c0-6.5-5.1-11.9-11.9-11.9h-35.6v33.9h11V33.8h18l5.7,10.2h11.9L151,32.8
			C155.2,31,158.1,26.8,158.1,21.9z M121.6,18.5h21.7c2.5,0,3.7,1.5,3.7,3.4s-1.1,3.4-3.7,3.4h-21.7
			C121.6,25.3,121.6,18.5,121.6,18.5z"/>
		<path class="st0" d="M35.6,10.1H0V44h11V33.8h24.6c6.8,0,11.9-5.3,11.9-11.9C47.4,15.4,42.3,10.1,35.6,10.1z M32.7,25.3H11v-6.8
			h21.7c2.5,0,3.7,1.5,3.7,3.4S35.3,25.3,32.7,25.3z"/>
		<polygon class="st1" points="31.5,0 27,4.5 22.5,0 18,4.5 13.5,0 13.5,6.7 31.5,6.7 		"/>
	</g>
</g>
</svg>
