<svg xmlns="http://www.w3.org/2000/svg" viewBox="0 0 300 300"><path fill="#FFF" d="M22 242c0-9.3 3.3-17.3 9.9-23.9s14.6-9.9 23.9-9.9 17.3 3.3 23.9 9.9c6.6 6.6 9.9 14.6 9.9 23.9 0 9.5-3.3 17.5-9.9 24-6.6 6.5-14.6 9.8-23.9 9.8s-17.3-3.3-23.9-9.9S22 251.3 22 242zm0-85.1v-48.5c30.3 0 58.3 7.5 84.1 22.5 25.7 15 46.1 35.3 61.1 61.1 15 25.7 22.5 53.8 22.5 84.1h-48.8c0-32.9-11.6-60.9-34.8-84.1-23.4-23.4-51.4-35.1-84.1-35.1zm0-86.1V22c34.4 0 67.2 6.7 98.6 20.2s58.3 31.5 81 54.2 40.8 49.7 54.2 81S276 241.6 276 276h-48.8c0-27.8-5.4-54.4-16.3-79.8s-25.4-47.2-43.8-65.5-40.2-32.8-65.5-43.7S49.8 70.8 22 70.8z"/></svg>