<?xml version="1.0" encoding="utf-8"?>
<!-- Generator: Adobe Illustrator 18.1.1, SVG Export Plug-In . SVG Version: 6.00 Build 0)  -->
<svg version="1.1" id="Layer_1" xmlns="http://www.w3.org/2000/svg" xmlns:xlink="http://www.w3.org/1999/xlink" x="0px" y="0px"
	 viewBox="0 0 178.4 100" enable-background="new 0 0 178.4 100" xml:space="preserve">
<g>
	<g>
		<g>
			<g>
				<rect x="52.4" y="18.2" fill="#FFFFFF" width="9.8" height="30.1"/>
				<rect x="120.4" y="18.2" fill="#FFFFFF" width="9.8" height="30.1"/>
				<polygon fill="#FFFFFF" points="136.2,18.2 136.2,25.7 152.4,25.7 152.4,48.3 162.2,48.3 162.2,25.7 178.4,25.7 178.4,18.2 				
					"/>
				<polygon fill="#FFFFFF" points="23.4,40.3 10.9,18.2 0,18.2 17,48.3 29.8,48.3 46.7,18.2 35.8,18.2 				"/>
				<path fill="#FFFFFF" d="M91.2,29.5c-9,0-11.8-0.4-11.8-2.1c0-1.7,5.1-2.3,11.9-2.3c6.2,0,13.1,1.2,17.4,2.5l2.5-6.9
					c-5-2.1-13.6-3.1-19.7-3.1C77.3,17.6,70,21.4,70,28c0,6.5,4.5,9,21,9c9,0,12.6,0.4,12.6,2.1c0,1.7-6,2.3-12.7,2.3
					c-6.8,0-14.7-1.5-18.8-3l-2.4,6.7c4.6,2.5,14.3,3.7,21,3.7c2.9,0,9.1-0.2,13.8-1.4c2.3-0.6,4.1-1.4,5.5-2.4
					c2.1-1.5,3.2-3.6,3.3-5.8C113.5,31.9,107.3,29.5,91.2,29.5z"/>
			</g>
		</g>
		<polygon fill="#1E1E1E" points="31.3,9.2 27.3,13.2 23.4,9.2 19.4,13.2 15.4,9.2 15.4,15.2 31.3,15.2 		"/>
	</g>
	<g>
		<path fill="#FFFFFF" d="M79.5,57.2c-15.8,0-23.6,6.9-23.6,16s7.9,16,23.6,16s23.6-6.9,23.6-16S95.3,57.2,79.5,57.2z M79.5,81.6
			c-8.9,0-13.7-3.6-13.7-8.4c0-4.8,4.8-8.4,13.7-8.4s13.7,3.6,13.7,8.4C93.2,78,88.4,81.6,79.5,81.6z"/>
		<rect x="157.7" y="58.1" fill="#FFFFFF" width="9.8" height="30.1"/>
		<path fill="#FFFFFF" d="M150.4,68.7c0-5.8-4.5-10.5-10.5-10.5h-31.6v30.1h9.8v-9h16l5.1,9h10.5l-5.6-9.9
			C147.9,76.8,150.4,73,150.4,68.7z M118,65.7h19.3c2.3,0,3.3,1.4,3.3,3s-1,3-3.3,3H118V65.7z"/>
		<path fill="#FFFFFF" d="M41.4,58.1H9.7v30.1h9.8v-9h21.9c6,0,10.5-4.7,10.5-10.5C51.9,62.9,47.4,58.1,41.4,58.1z M38.9,71.7H19.5
			v-6h19.3c2.3,0,3.3,1.4,3.3,3C42.1,70.3,41.1,71.7,38.9,71.7z"/>
	</g>
</g>
</svg>
