<?xml version="1.0" encoding="utf-8"?>
<!-- Generator: Adobe Illustrator 18.1.1, SVG Export Plug-In . SVG Version: 6.00 Build 0)  -->
<svg version="1.1" id="Layer_1" xmlns="http://www.w3.org/2000/svg" xmlns:xlink="http://www.w3.org/1999/xlink" x="0px" y="0px"
	 viewBox="0 0 178.4 100" enable-background="new 0 0 178.4 100" xml:space="preserve">
<g>
	<g>
		<g>
			<g>
				<rect x="52.4" y="19.1" width="9.8" height="30.1"/>
				<rect x="120.4" y="19.1" width="9.8" height="30.1"/>
				<polygon points="136.2,19.1 136.2,26.7 152.4,26.7 152.4,49.3 162.2,49.3 162.2,26.7 178.4,26.7 178.4,19.1 				"/>
				<polygon points="23.4,41.2 10.9,19.1 0,19.1 17,49.3 29.8,49.3 46.7,19.1 35.8,19.1 				"/>
				<path d="M91.2,30.5c-9,0-11.8-0.4-11.8-2.1c0-1.7,5.1-2.3,11.9-2.3c6.2,0,13.1,1.2,17.4,2.5l2.5-6.9c-5-2.1-13.6-3.1-19.7-3.1
					C77.3,18.5,70,22.4,70,28.9c0,6.5,4.5,9,21,9c9,0,12.6,0.4,12.6,2.1c0,1.7-6,2.3-12.7,2.3c-6.8,0-14.7-1.5-18.8-3l-2.4,6.7
					c4.6,2.5,14.3,3.7,21,3.7c2.9,0,9.1-0.2,13.8-1.4c2.3-0.6,4.1-1.4,5.5-2.4c2.1-1.5,3.2-3.6,3.3-5.8
					C113.5,32.9,107.3,30.5,91.2,30.5z"/>
			</g>
		</g>
		<polygon fill="#EC1C24" points="31.3,10.2 27.3,14.1 23.4,10.2 19.4,14.1 15.4,10.2 15.4,16.1 31.3,16.1 		"/>
	</g>
	<g>
		<path d="M79.5,58.1c-15.8,0-23.6,6.9-23.6,16s7.9,16,23.6,16s23.6-6.9,23.6-16S95.3,58.1,79.5,58.1z M79.5,82.5
			c-8.9,0-13.7-3.6-13.7-8.4c0-4.8,4.8-8.4,13.7-8.4s13.7,3.6,13.7,8.4C93.2,78.9,88.4,82.5,79.5,82.5z"/>
		<rect x="157.7" y="59.1" width="9.8" height="30.1"/>
		<path d="M150.4,69.6c0-5.8-4.5-10.5-10.5-10.5h-31.6v30.1h9.8v-9h16l5.1,9h10.5l-5.6-9.9C147.9,77.7,150.4,74,150.4,69.6z
			 M118,66.6h19.3c2.3,0,3.3,1.4,3.3,3s-1,3-3.3,3H118V66.6z"/>
		<path d="M41.4,59.1H9.7v30.1h9.8v-9h21.9c6,0,10.5-4.7,10.5-10.5C51.9,63.8,47.4,59.1,41.4,59.1z M38.9,72.6H19.5v-6h19.3
			c2.3,0,3.3,1.4,3.3,3C42.1,71.3,41.1,72.6,38.9,72.6z"/>
	</g>
</g>
</svg>
