<?xml version="1.0" encoding="utf-8"?>
<!-- Generator: Adobe Illustrator 18.1.1, SVG Export Plug-In . SVG Version: 6.00 Build 0)  -->
<svg version="1.1" id="Layer_1" xmlns="http://www.w3.org/2000/svg" xmlns:xlink="http://www.w3.org/1999/xlink" x="0px" y="0px"
	 viewBox="22.7 157 911.1 240" enable-background="new 22.7 157 911.1 240" xml:space="preserve">
<g>
	<path fill="#FFFFFF" d="M709.1,239.7c-40.3,0-60.5,17.5-60.5,40.9c0,23.4,20,40.9,60.5,40.9c40.3,0,60.5-17.5,60.5-40.9
		C769.6,257.3,749.3,239.7,709.1,239.7z M709.1,302.1c-22.7,0-35-9.1-35-21.4s12.3-21.4,35-21.4c22.7,0,35,9.1,35,21.4
		S731.8,302.1,709.1,302.1z"/>
	<rect x="908.8" y="242" fill="#FFFFFF" width="25" height="77.1"/>
	<path fill="#FFFFFF" d="M890.2,269.1c0-14.8-11.6-27.1-27.1-27.1h-81v77.1h25v-23.2h40.9l13,23.2h27.1l-14.3-25.3
		C883.8,289.8,890.2,280.2,890.2,269.1z M856.9,276.8h-49.4v-15.5h49.4c5.7,0,8.4,3.4,8.4,7.7C865.1,273.2,862.6,276.8,856.9,276.8z
		"/>
	<path fill="#FFFFFF" d="M611.5,242h-81v77.1h25v-23.2h56c15.5,0,27.1-12.1,27.1-27.1C638.6,254.1,627,242,611.5,242z M605.1,276.8
		h-49.4v-15.5h49.4c5.7,0,8.4,3.4,8.4,7.7C613.5,273.2,611,276.8,605.1,276.8z"/>
	<polygon fill="#212020" points="602.2,219.3 592.2,229.3 581.9,219.3 571.7,229.3 561.4,219.3 561.4,234.5 602.2,234.5 	"/>
	<rect x="156.7" y="242" fill="#FFFFFF" width="25" height="77.1"/>
	<rect x="330.5" y="242" fill="#FFFFFF" width="25" height="77.1"/>
	<polygon fill="#FFFFFF" points="371,261.3 412.4,261.3 412.4,319.1 437.5,319.1 437.5,261.3 478.9,261.3 478.9,242 371,242 	"/>
	<polygon fill="#FFFFFF" points="82.6,298.4 50.7,242 22.7,242 66.2,319.1 99,319.1 142.2,242 114.2,242 	"/>
	<path fill="#FFFFFF" d="M255.9,271.1c-23,0-30.3-0.9-30-5.5c0-4.5,13.2-5.9,30.3-5.9c15.7,0,33.4,3,44.6,6.4l6.4-17.5
		c-12.7-5.5-34.8-8-50.3-8c-36.4,0-54.8,9.8-54.8,26.4s11.6,23.2,53.7,23.2c23,0,32.3,0.9,32.1,5.5c0,4.5-15.2,5.9-32.5,5.9
		c-17.5,0-37.5-3.6-48-7.7l-6.1,17.1c11.8,6.4,36.6,9.6,53.7,9.6c7.3,0,23.4-0.5,35.3-3.6c5.9-1.6,10.5-3.6,14.1-6.4
		c5.2-3.9,8.2-9.1,8.4-14.8C313,277.3,297.1,271.1,255.9,271.1z"/>
</g>
<rect id="_x3C_Slice_x3E_" x="0" y="215.2" fill="none" width="960" height="129.7"/>
</svg>
