<svg xmlns="http://www.w3.org/2000/svg" viewBox="0 0 20.2 20.2"><path d="M-1.9-1.9h24v24h-24v-24z" fill="none"/><path d="M10.1.1C4.6.1.1 4.6.1 10.1s4.5 10 10 10 10-4.5 10-10-4.5-10-10-10zm6.9 6h-3c-.3-1.2-.8-2.5-1.4-3.6 1.9.7 3.4 1.9 4.4 3.6zm-6.9-4c.8 1.2 1.5 2.5 1.9 4H8.2c.4-1.4 1.1-2.8 1.9-4zm-7.8 10c-.2-.6-.3-1.3-.3-2s.1-1.4.3-2h3.4c-.1.7-.1 1.3-.1 2s.1 1.3.1 2H2.3zm.9 2h3c.3 1.2.8 2.5 1.4 3.6-1.9-.7-3.5-2-4.4-3.6zm2.9-8h-3c1-1.7 2.5-2.9 4.3-3.6-.5 1.1-1 2.3-1.3 3.6zm4 11.9c-.8-1.2-1.5-2.5-1.9-4H12c-.4 1.5-1.1 2.8-1.9 4zm2.3-5.9H7.7c-.1-.7-.2-1.3-.2-2s.1-1.4.2-2h4.7c.1.6.2 1.3.2 2s-.1 1.3-.2 2zm.3 5.5c.6-1.1 1.1-2.3 1.4-3.6h3c-1.1 1.7-2.6 3-4.4 3.6zm1.7-5.5c.1-.7.1-1.3.1-2s-.1-1.3-.1-2h3.4c.2.6.3 1.3.3 2s-.1 1.4-.3 2h-3.4z" fill="#fff"/></svg>