<?xml version="1.0" encoding="utf-8"?>
<!-- Generator: Adobe Illustrator 18.1.1, SVG Export Plug-In . SVG Version: 6.00 Build 0)  -->
<svg version="1.1" id="Layer_1" xmlns="http://www.w3.org/2000/svg" xmlns:xlink="http://www.w3.org/1999/xlink" x="0px" y="0px"
	 viewBox="0 0 300 300" enable-background="new 0 0 300 300" xml:space="preserve">
<path fill="#FFFFFF" d="M22,242c0-9.3,3.3-17.3,9.9-23.9s14.6-9.9,23.9-9.9s17.3,3.3,23.9,9.9c6.6,6.6,9.9,14.6,9.9,23.9
	c0,9.5-3.3,17.5-9.9,24c-6.6,6.5-14.6,9.8-23.9,9.8s-17.3-3.3-23.9-9.9S22,251.3,22,242z M22,156.9v-48.5c30.3,0,58.3,7.5,84.1,22.5
	c25.7,15,46.1,35.3,61.1,61.1c15,25.7,22.5,53.8,22.5,84.1h-48.8c0-32.9-11.6-60.9-34.8-84.1C82.7,168.6,54.7,156.9,22,156.9z
	 M22,70.8V22c34.4,0,67.2,6.7,98.6,20.2s58.3,31.5,81,54.2s40.8,49.7,54.2,81S276,241.6,276,276h-48.8c0-27.8-5.4-54.4-16.3-79.8
	s-25.4-47.2-43.8-65.5S126.9,97.9,101.6,87S49.8,70.8,22,70.8z"/>
</svg>
