<?xml version="1.0" encoding="utf-8"?>
<!-- Generator: Adobe Illustrator 19.2.1, SVG Export Plug-In . SVG Version: 6.00 Build 0)  -->
<svg version="1.1" id="Layer_1" xmlns="http://www.w3.org/2000/svg" xmlns:xlink="http://www.w3.org/1999/xlink" x="0px" y="0px"
	 viewBox="0 0 20.2 20.2" style="enable-background:new 0 0 20.2 20.2;" xml:space="preserve">
<style type="text/css">
	.st0{fill:#FFFFFF;}
</style>
<path class="st0" d="M16.8,15.1c0.9,0,1.7-0.8,1.7-1.7V4.2c0-0.9-0.8-1.7-1.7-1.7H3.4c-0.9,0-1.7,0.8-1.7,1.7v9.2
	c0,0.9,0.8,1.7,1.7,1.7H0c0,0.9,0.8,1.7,1.7,1.7h16.8c0.9,0,1.7-0.8,1.7-1.7C20.2,15.1,16.8,15.1,16.8,15.1z M3.4,4.2h13.4v9.2H3.4
	V4.2z M10.1,16c-0.5,0-0.8-0.4-0.8-0.8s0.4-0.8,0.8-0.8c0.5,0,0.8,0.4,0.8,0.8S10.5,16,10.1,16z"/>
</svg>
