<?xml version="1.0" encoding="utf-8"?>
<!-- Generator: Adobe Illustrator 19.2.1, SVG Export Plug-In . SVG Version: 6.00 Build 0)  -->
<svg version="1.1" id="Layer_1" xmlns="http://www.w3.org/2000/svg" xmlns:xlink="http://www.w3.org/1999/xlink" x="0px" y="0px"
	 viewBox="0 0 20.2 20.2" style="enable-background:new 0 0 20.2 20.2;" xml:space="preserve">
<style type="text/css">
	.st0{fill:none;}
	.st1{fill:#1E1E1E;}
</style>
<g>
	<path class="st0" d="M-1.9-1.9h24v24h-24V-1.9z"/>
	<path class="st1" d="M10.1,0.1c-5.5,0-10,4.5-10,10s4.5,10,10,10c5.5,0,10-4.5,10-10S15.6,0.1,10.1,0.1z M17,6.1h-3
		c-0.3-1.2-0.8-2.5-1.4-3.6C14.5,3.2,16,4.4,17,6.1z M10.1,2.1c0.8,1.2,1.5,2.5,1.9,4H8.2C8.6,4.7,9.3,3.3,10.1,2.1z M2.3,12.1
		c-0.2-0.6-0.3-1.3-0.3-2s0.1-1.4,0.3-2h3.4c-0.1,0.7-0.1,1.3-0.1,2s0.1,1.3,0.1,2H2.3z M3.2,14.1h3c0.3,1.2,0.8,2.5,1.4,3.6
		C5.7,17,4.1,15.7,3.2,14.1z M6.1,6.1h-3c1-1.7,2.5-2.9,4.3-3.6C6.9,3.6,6.4,4.8,6.1,6.1z M10.1,18c-0.8-1.2-1.5-2.5-1.9-4H12
		C11.6,15.5,10.9,16.8,10.1,18z M12.4,12.1H7.7c-0.1-0.7-0.2-1.3-0.2-2s0.1-1.4,0.2-2h4.7c0.1,0.6,0.2,1.3,0.2,2
		S12.5,11.4,12.4,12.1z M12.7,17.6c0.6-1.1,1.1-2.3,1.4-3.6h3C16,15.7,14.5,17,12.7,17.6z M14.4,12.1c0.1-0.7,0.1-1.3,0.1-2
		s-0.1-1.3-0.1-2h3.4c0.2,0.6,0.3,1.3,0.3,2s-0.1,1.4-0.3,2H14.4z"/>
</g>
</svg>
