<?xml version="1.0" encoding="utf-8"?>
<!-- Generator: Adobe Illustrator 18.1.1, SVG Export Plug-In . SVG Version: 6.00 Build 0)  -->
<svg version="1.1" id="Layer_1" xmlns="http://www.w3.org/2000/svg" xmlns:xlink="http://www.w3.org/1999/xlink" x="0px" y="0px"
	 viewBox="596 -596 1792 1792" enable-background="new 596 -596 1792 1792" xml:space="preserve">
<path fill="#FFFFFF" d="M1476,73c8.7,0,16.3,3.3,23,10l466,466c6.7,6.7,10,14.3,10,23s-3.3,16.3-10,23l-50,50
	c-6.7,6.7-14.3,10-23,10s-16.3-3.3-23-10l-393-393l-393,393c-6.7,6.7-14.3,10-23,10c-8.7,0-16.3-3.3-23-10l-50-50
	c-6.7-6.7-10-14.3-10-23s3.3-16.3,10-23l466-466C1459.7,76.3,1467.3,73,1476,73z"/>
</svg>
