<?xml version="1.0" encoding="utf-8"?>
<!-- Generator: Adobe Illustrator 18.1.1, SVG Export Plug-In . SVG Version: 6.00 Build 0)  -->
<svg version="1.1" id="Layer_1" xmlns="http://www.w3.org/2000/svg" xmlns:xlink="http://www.w3.org/1999/xlink" x="0px" y="0px"
	 viewBox="0 0 300 300" enable-background="new 0 0 300 300" xml:space="preserve">
<g>
	<path d="M47.3,77.8h162.8v8.3h9v-9.6c0-4.1-3.3-7.4-7.4-7.4h-165c-4.1,0-7.4,3.3-7.4,7.4v103.4h8V77.8z"/>
	<path d="M177.8,204v-16.7H16.8c-6.2,0-11.3,5-11.3,11.1c0,6.1,5.1,11.1,11.3,11.1h163C178.6,208,177.8,206.1,177.8,204z
		 M114.2,198.1v-3.4h29.9v3.4c0,2.2-1.8,4-4,4h-21.9C116,202.1,114.2,200.3,114.2,198.1z"/>
</g>
<path d="M237.9,204.7V195h-45c-2.4,0-4.3-1.9-4.3-4.3v-88.2c0-2.4,1.9-4.3,4.3-4.3h68.4c2.4,0,4.3,1.9,4.3,4.3v9h6.5V98.3
	c0-4.4-3.6-7.9-7.9-7.9h-74c-4.4,0-7.9,3.6-7.9,7.9v103.2c0,4.4,3.6,7.9,7.9,7.9h49.2C238.4,208.1,237.9,206.5,237.9,204.7z"/>
<path d="M286.7,115.1h-36.9c-4.4,0-7.9,3.6-7.9,7.9v78.5c0,4.4,3.6,7.9,7.9,7.9h36.9c4.4,0,7.9-3.6,7.9-7.9V123
	C294.6,118.7,291,115.1,286.7,115.1z M288.1,190.8c0,2.4-1.9,4.3-4.3,4.3h-31.3c-2.4,0-4.3-1.9-4.3-4.3v-63.4c0-2.4,1.9-4.3,4.3-4.3
	h31.3c2.4,0,4.3,1.9,4.3,4.3V190.8z"/>
<circle fill="#FFFFFF" cx="268.2" cy="201.9" r="4.2"/>
<circle fill="#FFFFFF" cx="227.1" cy="201.9" r="4.2"/>
</svg>
