<?xml version="1.0" encoding="utf-8"?>
<!-- Generator: Adobe Illustrator 18.1.1, SVG Export Plug-In . SVG Version: 6.00 Build 0)  -->
<svg version="1.1" id="Layer_1" xmlns="http://www.w3.org/2000/svg" xmlns:xlink="http://www.w3.org/1999/xlink" x="0px" y="0px"
	 viewBox="598 -476.1 2064 1792" enable-background="new 598 -476.1 2064 1792" xml:space="preserve">
<g id="Lozenge">
	<g>
		<linearGradient id="SVGID_1_" gradientUnits="userSpaceOnUse" x1="1616.7244" y1="-220.11" x2="1616.7244" y2="1060.9827">
			<stop  offset="0" style="stop-color:#E52D27"/>
			<stop  offset="1" style="stop-color:#BF171D"/>
		</linearGradient>
		<path fill="url(#SVGID_1_)" d="M2509.3,56.3c0,0-17.8-125.5-72.4-180.8c-69.3-72.5-146.9-72.9-182.5-77.2
			c-254.9-18.4-637.2-18.4-637.2-18.4h-0.8c0,0-382.3,0-637.2,18.4c-35.6,4.2-113.2,4.6-182.5,77.2C742-69.3,724.2,56.3,724.2,56.3
			S706,203.7,706,351.1v138.2c0,147.4,18.2,294.8,18.2,294.8s17.8,125.5,72.4,180.8c69.3,72.5,160.3,70.3,200.8,77.9
			c145.7,14,619.3,18.3,619.3,18.3s382.7-0.6,637.6-19c35.6-4.2,113.2-4.6,182.5-77.2c54.6-55.3,72.4-180.8,72.4-180.8
			s18.2-147.4,18.2-294.8V351.1C2527.4,203.7,2509.3,56.3,2509.3,56.3z M1428.7,656.7l-0.1-511.8l492.2,256.8L1428.7,656.7z"/>
	</g>
</g>
</svg>
