<?xml version="1.0" encoding="UTF-8" standalone="no"?>
<!-- Generator: Adobe Illustrator 18.1.1, SVG Export Plug-In . SVG Version: 6.00 Build 0)  -->
<svg xmlns="http://www.w3.org/2000/svg" xmlns:xlink="http://www.w3.org/1999/xlink" version="1.1" id="Layer_1" x="0px" y="0px" viewBox="598 -476.1 3336 1792" enable-background="new 598 -476.1 3336 1792" xml:space="preserve">
<path fill="#cd201f" d="M 2266.1875 255.90625 C 2266.1875 255.90625 1881.4935 255.90625 1625.0938 274.40625 C 1589.2934 278.60625 1511.2 278.9875 1441.5 351.6875 C 1386.6 407.0875 1368.6875 532.8125 1368.6875 532.8125 C 1368.6875 532.8125 1350.4062 680.39375 1350.4062 828.09375 L 1350.4062 966.5 C 1350.4062 1114.1 1368.6875 1261.8125 1368.6875 1261.8125 C 1368.6875 1261.8125 1386.6 1387.5062 1441.5 1442.9062 C 1511.2 1515.6064 1602.7936 1513.3064 1643.5938 1520.9062 C 1790.1934 1534.9062 2266.6875 1539.1875 2266.6875 1539.1875 C 2266.6875 1539.1875 2651.7875 1538.5875 2908.1875 1520.1875 C 2943.9875 1515.8875 3022.1125 1515.6064 3091.8125 1442.9062 C 3146.7125 1387.5066 3164.6875 1261.8125 3164.6875 1261.8125 C 3164.6875 1261.8125 3183 1114.2 3183 966.5 L 3183 828.09375 C 3182.9 680.39375 3164.5936 532.8125 3164.5938 532.8125 C 3164.5938 532.8125 3146.6875 407.0875 3091.6875 351.6875 C 3021.9875 278.9875 2943.8934 278.70625 2908.0938 274.40625 C 2651.6934 255.90625 2267 255.90625 2267 255.90625 L 2266.1875 255.90625 z M 1887.8125 472 L 1887.8125 588.59375 L 1752.8125 588.59375 L 1752.8125 1294.4062 L 1630 1294.4062 L 1630 588.59375 L 1501.0938 588.59375 L 1501.0938 472.09375 L 1887.8125 472 z M 2286.5938 472 L 2397.0938 472 L 2397 740.09375 C 2432.9 695.89375 2473.5062 670.8125 2514.4062 670.8125 C 2558.7063 670.8125 2588.3875 696.4125 2603.1875 742.3125 C 2610.6875 767.0125 2618.0937 806.7125 2618.0938 864.8125 L 2618.0938 1110.3125 C 2618.0938 1167.0125 2613.2125 1207 2605.8125 1233 C 2591.0125 1278.6 2558.6062 1302.3125 2514.4062 1302.3125 C 2474.9064 1302.3125 2434.4125 1278.4938 2397.3125 1232.5938 L 2397.0938 1294.4062 L 2286.5938 1294.4062 L 2286.5938 472 z M 2862.3125 671.6875 C 2918.0125 671.6875 2962.3063 693.90625 2993.4062 735.90625 C 3016.6062 766.90625 3029.5 814.90625 3029.5 880.40625 L 3029.5 1005.9062 L 2808.4062 1005.9062 L 2808.4062 1116 C 2808.0062 1172.6 2824.2125 1201.0938 2862.3125 1201.0938 C 2889.6125 1201.0938 2905.6062 1186.2 2911.9062 1156.5 C 2912.9062 1150.5 2912.6875 1124.0062 2912.6875 1079.4062 L 3029.3125 1079.4062 L 3029.3125 1096.8125 C 3029.3125 1132.6125 3026.4062 1157.9938 3025.4062 1169.0938 C 3021.6062 1193.7938 3012.9062 1215.9875 2999.4062 1235.6875 C 2968.6062 1280.2875 2923.1 1302.1875 2865 1302.1875 C 2806.9 1302.1875 2762.6 1281.3062 2730.5 1239.4062 C 2706.9 1208.7062 2691.8125 1163.1062 2691.8125 1097.9062 L 2691.8125 883.09375 C 2691.8125 817.59375 2705.5875 766.90625 2729.1875 735.90625 C 2761.2875 693.90625 2805.6125 671.6875 2862.3125 671.6875 z M 1869.4062 680.6875 L 1986 680.6875 L 1986 1134.8125 L 1986 1177.8125 C 1988.7 1195.0125 1996.0064 1201.3125 2010.9062 1201.3125 C 2033.2065 1201.3125 2053.3936 1181.8936 2078.0938 1147.0938 L 2078.0938 680.6875 L 2194.6875 680.6875 L 2194.6875 1294.4062 L 2194.5938 1294.4062 L 2078 1294.4062 L 2078 1226.9062 C 2033.8 1277.6064 1996.3 1303.1875 1955.5 1303.1875 C 1919.7 1303.1875 1894.8125 1286.2875 1882.3125 1255.6875 C 1874.7125 1237.0875 1869.4063 1208.1 1869.4062 1165.5 L 1869.4062 680.6875 z M 2455 773.09375 C 2436.7 773.09375 2415.7875 782.79375 2397.1875 801.09375 L 2397.0938 1173.3125 C 2415.5936 1191.9125 2436.7 1201.3125 2455 1201.3125 C 2487 1201.3125 2501.5 1177.8063 2501.5 1116.4062 L 2501.5 852.5 C 2501.5 791.1 2487 773.09375 2455 773.09375 z M 2861.0938 773.09375 C 2823.9938 773.09375 2808.3125 788.69375 2808.3125 846.09375 L 2808.3125 914 L 2912.5938 913.90625 L 2912.5938 846.90625 C 2912.5938 790.10625 2897.8938 773.09375 2861.0938 773.09375 z " transform="translate(598,-476.1)" id="lozenge_2_" />
<path id="u_2_" d="M1853.6,818.3H1737v-67.5c-44.2,50.7-81.7,76.3-122.5,76.3c-35.8,0-60.7-16.9-73.2-47.5 c-7.6-18.6-12.9-47.6-12.9-90.2v-491H1645v460.3c0,26,0,36.8,0,43c2.7,17.2,10,23.5,24.9,23.5c22.3,0,42.5-19.4,67.2-54.2V198.4 h116.6V818.3z" />
<path id="o_2_" d="M1442.5,400.9c0-66.2-13.3-116-36.8-147.3c-31.1-42.4-79.8-59.8-128.9-59.8c-55.6,0-97.9,17.4-128.9,59.8 c-23.9,31.3-36.7,81.6-36.7,147.8l-0.1,220.4c0,65.9,11.4,111.4,35.3,142.4c31,42.3,81.3,64.7,130.4,64.7s100.3-22.4,131.3-64.7 c23.5-31,34.4-76.5,34.4-142.4V400.9z M1325.9,634.2c6.1,61.4-12.9,91.8-49.1,91.8c-36.2,0-55.2-30.5-49.1-91.8V388.7 c-6.1-61.4,12.9-90.1,49.1-90.1c36.2,0,55.3,28.8,49.2,90.1L1325.9,634.2z" />
<path id="y_2_" d="M982.2,480.7v337.5H859.4V480.7c0,0-127.2-413.8-153.4-491h128.9L921,313l85.7-323.3h128.9L982.2,480.7z" />
</svg>