<?xml version="1.0" encoding="utf-8"?>
<!-- Generator: Adobe Illustrator 18.1.1, SVG Export Plug-In . SVG Version: 6.00 Build 0)  -->
<svg version="1.1" id="Layer_1" xmlns="http://www.w3.org/2000/svg" xmlns:xlink="http://www.w3.org/1999/xlink" x="0px" y="0px"
	 viewBox="0 0 422 57" enable-background="new 0 0 422 57" xml:space="preserve">
<g>
	<path fill="#1E1E1E" d="M311.7,10.8c-17.7,0-26.6,7.7-26.6,18s8.8,18,26.6,18c17.7,0,26.6-7.7,26.6-18S329.4,10.8,311.7,10.8z
		 M311.7,38.2c-10,0-15.4-4-15.4-9.4s5.4-9.4,15.4-9.4c10,0,15.4,4,15.4,9.4S321.7,38.2,311.7,38.2z"/>
	<rect x="399.5" y="11.8" fill="#1E1E1E" width="11" height="33.9"/>
	<path fill="#1E1E1E" d="M391.3,23.7c0-6.5-5.1-11.9-11.9-11.9h-35.6v33.9h11V35.5h18l5.7,10.2h11.9l-6.3-11.1
		C388.5,32.8,391.3,28.6,391.3,23.7z M376.7,27.1h-21.7v-6.8h21.7c2.5,0,3.7,1.5,3.7,3.4C380.3,25.5,379.2,27.1,376.7,27.1z"/>
	<path fill="#1E1E1E" d="M268.8,11.8h-35.6v33.9h11V35.5h24.6c6.8,0,11.9-5.3,11.9-11.9C280.7,17.1,275.6,11.8,268.8,11.8z
		 M266,27.1h-21.7v-6.8H266c2.5,0,3.7,1.5,3.7,3.4C269.7,25.5,268.6,27.1,266,27.1z"/>
	<polygon fill="#EC1C24" points="264.7,1.8 260.3,6.2 255.8,1.8 251.3,6.2 246.8,1.8 246.8,8.5 264.7,8.5 	"/>
	<rect x="68.9" y="11.8" fill="#1E1E1E" width="11" height="33.9"/>
	<rect x="145.3" y="11.8" fill="#1E1E1E" width="11" height="33.9"/>
	<polygon fill="#1E1E1E" points="163.1,20.3 181.3,20.3 181.3,45.7 192.3,45.7 192.3,20.3 210.5,20.3 210.5,11.8 163.1,11.8 	"/>
	<polygon fill="#1E1E1E" points="36.3,36.6 22.3,11.8 10,11.8 29.1,45.7 43.5,45.7 62.5,11.8 50.2,11.8 	"/>
	<path fill="#1E1E1E" d="M112.5,24.6c-10.1,0-13.3-0.4-13.2-2.4c0-2,5.8-2.6,13.3-2.6c6.9,0,14.7,1.3,19.6,2.8l2.8-7.7
		c-5.6-2.4-15.3-3.5-22.1-3.5c-16,0-24.1,4.3-24.1,11.6c0,7.3,5.1,10.2,23.6,10.2c10.1,0,14.2,0.4,14.1,2.4c0,2-6.7,2.6-14.3,2.6
		c-7.7,0-16.5-1.6-21.1-3.4l-2.7,7.5c5.2,2.8,16.1,4.2,23.6,4.2c3.2,0,10.3-0.2,15.5-1.6c2.6-0.7,4.6-1.6,6.2-2.8
		c2.3-1.7,3.6-4,3.7-6.5C137.6,27.3,130.6,24.6,112.5,24.6z"/>
</g>
<rect id="_x3C_Slice_x3E_" fill="none" width="422" height="57"/>
</svg>
