<svg xmlns="http://www.w3.org/2000/svg" width="194.98" height="43.551" viewBox="0 0 194.98 43.551"><defs><style>.a{fill:#e03126;}</style></defs><g transform="translate(-350.304 -461.795)"><path d="M372.483,474.1a4.584,4.584,0,0,1,1.166,3.118,5.056,5.056,0,0,1-.7,2.617,5.271,5.271,0,0,1-1.891,1.893,5.076,5.076,0,0,1-2.618.7H350.3V465.774h18.136a5.064,5.064,0,0,1,2.618.7,5.278,5.278,0,0,1,1.891,1.891,5.064,5.064,0,0,1,.7,2.618A4.584,4.584,0,0,1,372.483,474.1Zm-4.665-2.047a1.192,1.192,0,0,0,.357-.88,1.207,1.207,0,0,0-.357-.87,1.179,1.179,0,0,0-.881-.368H355.7v2.475h11.232A1.2,1.2,0,0,0,367.818,472.056Zm0,5.854a1.192,1.192,0,0,0,.357-.881,1.2,1.2,0,0,0-.357-.869,1.179,1.179,0,0,0-.881-.368H355.7v2.475h11.232A1.2,1.2,0,0,0,367.818,477.911Z" transform="translate(0 0.972)"/><path d="M394.376,474.294a8.09,8.09,0,0,1-2.607,6.248q-2.606,2.391-8.627,2.392-6,0-8.6-2.392a8.089,8.089,0,0,1-2.606-6.248v-8.52h5.4V474.1a4.259,4.259,0,0,0,1.415,3.32,8.251,8.251,0,0,0,8.806,0,4.256,4.256,0,0,0,1.416-3.32v-8.329h5.378Z" transform="translate(5.285 0.972)"/><path d="M414.756,481.357q-2.5,1.678-9.734,1.679h-.88a38.8,38.8,0,0,1-6.069-.536,26.706,26.706,0,0,1-3.987-.975,7.074,7.074,0,0,1-1.44-.582L394,477.133a10.484,10.484,0,0,0,1.5.489,32.467,32.467,0,0,0,3.737.809,31.343,31.343,0,0,0,4.807.392h.809a31.946,31.946,0,0,0,5.176-.309q1.726-.31,1.749-1c0-.332-.241-.591-.725-.773a8.643,8.643,0,0,0-2.273-.382q-1.545-.1-4.259-.106a33.94,33.94,0,0,1-6.8-.584,7.848,7.848,0,0,1-3.7-1.63,3.531,3.531,0,0,1-1.142-2.689,4.841,4.841,0,0,1,3.022-4.438q3.022-1.558,8.616-1.559a37.734,37.734,0,0,1,5.664.392,36.6,36.6,0,0,1,4.224.857,12.344,12.344,0,0,1,1.654.513l-1.4,3.878a8.5,8.5,0,0,0-1.344-.452,27.1,27.1,0,0,0-3.4-.738,28.41,28.41,0,0,0-4.534-.333q-7.234,0-7.234,1.38,0,.525.7.785a8.321,8.321,0,0,0,2.141.368q1.441.108,4.01.132a32.5,32.5,0,0,1,7.807.749,6.8,6.8,0,0,1,3.569,1.844,4.182,4.182,0,0,1,.881,2.667A4.775,4.775,0,0,1,414.756,481.357Z" transform="translate(10.345 0.869)"/><path d="M415.675,465.774h5.4v16.659h-5.4Z" transform="translate(15.971 0.972)"/><path d="M446.589,465.774v16.659h-7.4L428.67,470.747v11.685h-5.4V465.774h7.4l10.5,11.66v-11.66Z" transform="translate(17.826 0.972)"/><path d="M450.855,469.939v2.285H464.92v3.76H450.855v2.285h16.613v4.165H445.452V465.774h22.016v4.165Z" transform="translate(23.246 0.972)"/><path d="M487.835,481.357q-2.5,1.678-9.733,1.679h-.881a38.825,38.825,0,0,1-6.07-.536,26.719,26.719,0,0,1-3.986-.975,7.073,7.073,0,0,1-1.44-.582l1.356-3.809a10.409,10.409,0,0,0,1.5.489,32.467,32.467,0,0,0,3.737.809,31.342,31.342,0,0,0,4.807.392h.809a31.974,31.974,0,0,0,5.178-.309q1.723-.31,1.748-1c0-.332-.241-.591-.725-.773a8.644,8.644,0,0,0-2.273-.382q-1.545-.1-4.259-.106a33.94,33.94,0,0,1-6.8-.584,7.854,7.854,0,0,1-3.7-1.63,3.531,3.531,0,0,1-1.142-2.689,4.841,4.841,0,0,1,3.022-4.438q3.024-1.558,8.616-1.559a37.732,37.732,0,0,1,5.664.392,36.6,36.6,0,0,1,4.224.857,12.341,12.341,0,0,1,1.654.513l-1.4,3.878a8.5,8.5,0,0,0-1.344-.452,27.1,27.1,0,0,0-3.4-.738,28.4,28.4,0,0,0-4.534-.333q-7.234,0-7.234,1.38,0,.525.7.785a8.331,8.331,0,0,0,2.141.368q1.441.108,4.01.132a32.5,32.5,0,0,1,7.807.749,6.82,6.82,0,0,1,3.57,1.844,4.188,4.188,0,0,1,.88,2.667A4.775,4.775,0,0,1,487.835,481.357Z" transform="translate(28.199 0.869)"/><path d="M509.333,481.357q-2.5,1.678-9.733,1.679h-.881a38.811,38.811,0,0,1-6.07-.536,26.717,26.717,0,0,1-3.985-.975,7.074,7.074,0,0,1-1.44-.582l1.356-3.809a10.405,10.405,0,0,0,1.5.489,32.462,32.462,0,0,0,3.737.809,31.343,31.343,0,0,0,4.807.392h.809a31.975,31.975,0,0,0,5.178-.309q1.723-.31,1.748-1c0-.332-.241-.591-.725-.773a8.643,8.643,0,0,0-2.273-.382q-1.547-.1-4.259-.106a33.94,33.94,0,0,1-6.8-.584,7.854,7.854,0,0,1-3.7-1.63,3.531,3.531,0,0,1-1.142-2.689,4.841,4.841,0,0,1,3.022-4.438q3.024-1.558,8.616-1.559a37.734,37.734,0,0,1,5.664.392,36.651,36.651,0,0,1,4.224.857,12.272,12.272,0,0,1,1.652.513l-1.4,3.878a8.5,8.5,0,0,0-1.344-.452,27.1,27.1,0,0,0-3.4-.738,28.4,28.4,0,0,0-4.534-.333q-7.234,0-7.234,1.38,0,.525.7.785a8.332,8.332,0,0,0,2.141.368q1.441.108,4.01.132a32.5,32.5,0,0,1,7.807.749,6.819,6.819,0,0,1,3.57,1.844,4.188,4.188,0,0,1,.88,2.667A4.775,4.775,0,0,1,509.333,481.357Z" transform="translate(33.451 0.869)"/><g transform="translate(350.302 487.64)"><path d="M370.77,483.773a5.706,5.706,0,0,1,2.094,2.117,6.007,6.007,0,0,1,0,5.854,5.753,5.753,0,0,1-5.069,2.9H355.7v5h-5.4V482.987h17.492A5.74,5.74,0,0,1,370.77,483.773Zm-3.01,6.246a1.792,1.792,0,0,0,0-2.4,1.823,1.823,0,0,0-1.345-.464H355.7v3.332h10.71A1.822,1.822,0,0,0,367.76,490.02Z" transform="translate(-350.302 -482.463)"/><path d="M390.93,483.708a9.657,9.657,0,0,1,4.415,3.142,7.811,7.811,0,0,1,0,9.138,9.649,9.649,0,0,1-4.415,3.142,19.873,19.873,0,0,1-7.176,1.142,20.08,20.08,0,0,1-7.175-1.13,9.58,9.58,0,0,1-4.415-3.131,7.848,7.848,0,0,1,0-9.162,9.657,9.657,0,0,1,4.415-3.142,23.107,23.107,0,0,1,14.351,0Zm-3.057,11.756a5.7,5.7,0,0,0,2.593-1.654,3.687,3.687,0,0,0,0-4.783,5.72,5.72,0,0,0-2.593-1.654,14.52,14.52,0,0,0-8.235,0,5.725,5.725,0,0,0-2.594,1.654,3.687,3.687,0,0,0,0,4.783,5.705,5.705,0,0,0,2.594,1.654,14.55,14.55,0,0,0,8.235,0Z" transform="translate(-345.321 -482.566)"/><path d="M416.211,492.054a5.554,5.554,0,0,1-2.522,2.118l3.07,5.474h-5.83l-2.81-5h-8.852v5h-5.426V482.987h17.492a5.755,5.755,0,0,1,5.068,2.9,5.993,5.993,0,0,1-.19,6.164Zm-4.9-2.034a1.821,1.821,0,0,0,0-2.4,1.81,1.81,0,0,0-1.356-.464H399.267v3.332h10.685A1.81,1.81,0,0,0,411.309,490.02Z" transform="translate(-339.665 -482.463)"/><path d="M415.694,482.987h5.4v16.659h-5.4Z" transform="translate(-334.326 -482.463)"/></g><path class="a" d="M364.438,461.8l-2.192,2.192-2.192-2.192-2.192,2.192-2.191-2.192v3.287h8.767Z" transform="translate(1.312 0)"/></g></svg>