<?xml version="1.0" encoding="utf-8"?>
<!-- Generator: Adobe Illustrator 18.1.1, SVG Export Plug-In . SVG Version: 6.00 Build 0)  -->
<svg version="1.1" id="Layer_1" xmlns="http://www.w3.org/2000/svg" xmlns:xlink="http://www.w3.org/1999/xlink" x="0px" y="0px"
	 viewBox="598 -476.1 1792 1792" enable-background="new 598 -476.1 1792 1792" xml:space="preserve">
<path fill="#FFFFFF" d="M1923.9-209.8L2059.7-74c18.9,18.9,28.3,41.5,28.3,67.9s-9.4,49-28.3,67.9l-294.2,294.2L2059.7,650
	c18.9,18.9,28.3,41.5,28.3,67.9c0,26.4-9.4,49-28.3,67.9l-135.8,135.8c-18.9,18.9-41.5,28.3-67.9,28.3c-26.4,0-49-9.4-67.9-28.3
	L1494,627.4l-294.2,294.2c-18.9,18.9-41.5,28.3-67.9,28.3s-49-9.4-67.9-28.3L928.3,785.8C909.5,767,900,744.3,900,717.9
	c0-26.4,9.4-49,28.3-67.9l294.2-294.2L928.3,61.7C909.5,42.9,900,20.2,900-6.1c0-26.4,9.4-49,28.3-67.9l135.8-135.8
	c18.9-18.9,41.5-28.3,67.9-28.3c26.4,0,49,9.4,67.9,28.3L1494,84.4l294.2-294.2c18.9-18.9,41.5-28.3,67.9-28.3
	C1882.4-238.1,1905.1-228.7,1923.9-209.8z"/>
</svg>
