<?xml version="1.0" encoding="utf-8"?>
<!-- Generator: Adobe Illustrator 18.1.1, SVG Export Plug-In . SVG Version: 6.00 Build 0)  -->
<svg version="1.1" id="Layer_1" xmlns="http://www.w3.org/2000/svg" xmlns:xlink="http://www.w3.org/1999/xlink" x="0px" y="0px"
	 viewBox="0 0 107.2 85.7" enable-background="new 0 0 107.2 85.7" xml:space="preserve">
<g>
	<path d="M89.5,28.8C81.8,34.2,74,39.5,66.3,44.9c-3.2,2.2-8.7,6.8-12.7,6.8h-0.1h-0.1c-4,0-9.5-4.6-12.7-6.8
		c-7.7-5.4-15.5-10.8-23.2-16.1c-3.5-2.4-8.5-8-8.5-12.5c0-4.9,2.6-9,7.9-9h73c4.3,0,7.9,3.6,7.9,7.9C98,20.8,93.9,25.8,89.5,28.8z
		 M98,69.2c0,4.4-3.6,7.9-7.9,7.9h-73c-4.4,0-7.9-3.6-7.9-7.9V29.8c1.5,1.6,3.2,3.1,5,4.3c8.2,5.6,16.6,11.2,24.7,17.1
		c4.2,3.1,9.3,6.8,14.7,6.8h0.1h0.1c5.4,0,10.6-3.8,14.7-6.8c8.1-5.9,16.4-11.5,24.7-17.1c1.8-1.2,3.5-2.7,5-4.3V69.2z"/>
</g>
</svg>
