<?xml version="1.0" encoding="utf-8"?>
<!-- Generator: Adobe Illustrator 18.1.1, SVG Export Plug-In . SVG Version: 6.00 Build 0)  -->
<svg version="1.1" id="Layer_1" xmlns="http://www.w3.org/2000/svg" xmlns:xlink="http://www.w3.org/1999/xlink" x="0px" y="0px"
	 viewBox="598 -476.1 1792 1792" enable-background="new 598 -476.1 1792 1792" xml:space="preserve">
<path fill="#FFFFFF" d="M2223.4-404.6H756.6c-50.3,0-91,40.8-91,91v1467c0,50.3,40.8,91,91,91h1466.9c50.3,0,91-40.8,91-91v-1467
	C2314.5-363.9,2273.7-404.6,2223.4-404.6z M2058.4,76.8l-131.8,0.1c-103.3,0-123.3,49.1-123.3,121.2v159h246.5l-32.1,248.8h-214.4
	v638.4h-257V605.8h-214.9V356.9h214.9V173.3c0-213,130.1-329,320.1-329c91,0,169.2,6.8,192,9.8V76.8z"/>
</svg>
