<?xml version="1.0" encoding="utf-8"?>
<!-- Generator: Adobe Illustrator 18.1.1, SVG Export Plug-In . SVG Version: 6.00 Build 0)  -->
<svg version="1.1" id="Layer_2" xmlns="http://www.w3.org/2000/svg" xmlns:xlink="http://www.w3.org/1999/xlink" x="0px" y="0px"
	 viewBox="598 -476.1 1792 1792" enable-background="new 598 -476.1 1792 1792" xml:space="preserve">
<g>
	<path fill="#FFFFFF" d="M2196.1-404.6H787.5c-67.3,0-122,53.4-122,119.2V1129c0,65.8,54.7,119.3,122,119.3h1408.6
		c67.4,0,122.3-53.4,122.3-119.3V-285.4C2318.4-351.3,2263.6-404.6,2196.1-404.6z"/>
	<path fill="#FFFFFF" d="M910.5,215h245.2v788.8H910.5V215z M1033.1-177.1c78.4,0,142.1,63.7,142.1,142.2
		c0,78.4-63.7,142.1-142.1,142.1C954.6,107.3,891,43.6,891-34.9C891-113.4,954.6-177.1,1033.1-177.1"/>
	<path fill="#FFFFFF" d="M1309.5,215h235.1v107.9h3.4c32.7-62,112.7-127.4,232-127.4c248.3,0,294.1,163.3,294.1,375.7v432.6H1829
		V620.2c0-91.5-1.6-209.2-127.4-209.2c-127.6,0-147,99.7-147,202.6v390.2h-245.1V215z"/>
</g>
</svg>
