<?xml version="1.0" encoding="UTF-8" standalone="no"?>
<svg
   xmlns:dc="http://purl.org/dc/elements/1.1/"
   xmlns:cc="http://creativecommons.org/ns#"
   xmlns:rdf="http://www.w3.org/1999/02/22-rdf-syntax-ns#"
   xmlns:svg="http://www.w3.org/2000/svg"
   xmlns="http://www.w3.org/2000/svg"
   height="1200"
   width="1000"
   viewBox="0 0 1000 1200"
   id="svg2"
   version="1.1">
  <g
     id="g4"
     transform="matrix(1.4647931,0,0,1.4647931,133.80172,-129.82328)">
    <path
       d="m 250,100 c 69.333,0 128.333,24.333 177,73 48.667,48.667 73,107.667 73,177 0,70.667 -20.667,151.667 -62,243 -41.333,91.333 -83.333,165.667 -126,223 0,0 -62,84 -62,84 -6.667,-8 -15.667,-19.667 -27,-35 C 211.667,849.667 191.667,820 163,776 134.333,732 109,688.667 87,646 65,603.333 45,554.333 27,499 9,443.667 0,394 0,350 0,280.667 24.333,221.667 73,173 c 48.667,-48.667 107.667,-73 177,-73 0,0 0,0 0,0 m 0,388 c 37.333,0 69.333,-13.333 96,-40 26.667,-26.667 40,-58.667 40,-96 0,-37.333 -13.333,-69 -40,-95 -26.667,-26 -58.667,-39 -96,-39 -37.333,0 -69,13 -95,39 -26,26 -39,57.667 -39,95 0,37.333 13,69.333 39,96 26,26.667 57.667,40 95,40 0,0 0,0 0,0"
       id="path6" />
  </g>
</svg>
