<?xml version="1.0" encoding="utf-8"?>
<!-- Generator: Adobe Illustrator 18.1.1, SVG Export Plug-In . SVG Version: 6.00 Build 0)  -->
<svg version="1.1" id="Layer_1" xmlns="http://www.w3.org/2000/svg" xmlns:xlink="http://www.w3.org/1999/xlink" x="0px" y="0px"
	 viewBox="15.1 0 222 251.5" enable-background="new 15.1 0 222 251.5" xml:space="preserve">
<path id="u_2_" d="M228.1,203.1h-20.8v-12c-7.9,9-14.6,13.6-21.9,13.6c-6.4,0-10.8-3-13.1-8.5c-1.4-3.3-2.3-8.5-2.3-16.1V92.5h20.8
	v82.1c0,4.6,0,6.6,0,7.7c0.5,3.1,1.8,4.2,4.4,4.2c4,0,7.6-3.5,12-9.7V92.5h20.8L228.1,203.1L228.1,203.1z"/>
<path id="o_2_" d="M154.7,128.7c0-11.8-2.4-20.7-6.6-26.3c-5.5-7.6-14.2-10.7-23-10.7c-9.9,0-17.5,3.1-23,10.7
	c-4.3,5.6-6.5,14.6-6.5,26.4l0,39.3c0,11.8,2,19.9,6.3,25.4c5.5,7.5,14.5,11.5,23.3,11.5s17.9-4,23.4-11.5
	c4.2-5.5,6.1-13.7,6.1-25.4L154.7,128.7L154.7,128.7z M133.9,170.3c1.1,11-2.3,16.4-8.8,16.4s-9.8-5.4-8.8-16.4v-43.8
	c-1.1-11,2.3-16.1,8.8-16.1s9.9,5.1,8.8,16.1L133.9,170.3z"/>
<path id="y_2_" d="M72.6,142.9v60.2H50.7v-60.2c0,0-22.7-73.8-27.4-87.6h23L61.7,113l15.3-57.7h23L72.6,142.9z"/>
</svg>
