<?xml version="1.0" encoding="utf-8"?>
<!-- Generator: Adobe Illustrator 18.1.1, SVG Export Plug-In . SVG Version: 6.00 Build 0)  -->
<svg version="1.1" id="Layer_1" xmlns="http://www.w3.org/2000/svg" xmlns:xlink="http://www.w3.org/1999/xlink" x="0px" y="0px"
	 viewBox="15.1 0 349.9 251.5" enable-background="new 15.1 0 349.9 251.5" xml:space="preserve">
<linearGradient id="lozenge_1_" gradientUnits="userSpaceOnUse" x1="-1676.7255" y1="24.1368" x2="-1676.7255" y2="-1259.1632" gradientTransform="matrix(0.1784 0 0 -0.1784 491.2921 20.1454)">
	<stop  offset="0" style="stop-color:#E32E28"/>
	<stop  offset="1" style="stop-color:#BE2126"/>
</linearGradient>
<path id="lozenge_2_" fill="url(#lozenge_1_)" d="M352.3,65.2c0,0-3.2-22.4-13-32.3c-12.4-13-26.4-13-32.8-13.8
	c-45.8-3.3-114.4-3.3-114.4-3.3H192c0,0-68.6,0-114.4,3.3c-6.4,0.7-20.3,0.8-32.8,13.8c-9.8,9.9-13,32.3-13,32.3s-3.3,26.3-3.3,52.7
	v24.7c0,26.3,3.3,52.7,3.3,52.7s3.2,22.4,13,32.3c12.4,13,28.8,12.6,36.1,13.9c26.2,2.5,111.2,3.3,111.2,3.3s68.7-0.1,114.5-3.4
	c6.4-0.8,20.3-0.8,32.8-13.8c9.8-9.9,13-32.3,13-32.3s3.3-26.3,3.3-52.7v-24.7C355.6,91.6,352.3,65.2,352.3,65.2z"/>
<path id="e_1_" fill="#FFFFFF" d="M328.2,149.7v-22.4c0-11.7-2.3-20.3-6.4-25.8C316.2,94,308.3,90,298.4,90c-10.1,0-18,4-23.8,11.5
	c-4.2,5.5-6.7,14.6-6.7,26.3v38.3c0,11.6,2.7,19.8,6.9,25.2c5.7,7.5,13.6,11.2,24,11.2c10.4,0,18.5-3.9,24-11.9
	c2.4-3.5,4-7.5,4.6-11.9c0.2-2,0.7-6.5,0.7-12.9v-3.1h-20.8c0,8,0,12.7-0.1,13.8c-1.1,5.3-4,8-8.9,8c-6.8,0-9.7-5.1-9.6-15.2v-19.6
	H328.2z M288.7,121.2c0-10.2,2.8-13,9.4-13c6.6,0,9.2,3,9.2,13.2v12l-18.6,0V121.2z"/>
<path id="b_1_" fill="#FFFFFF" d="M236.3,89.9c-7.3,0-14.5,4.5-20.9,12.4l0-47.8h-19.7v146.8h19.7l0-11c6.6,8.2,13.8,12.4,20.9,12.4
	c7.9,0,13.7-4.2,16.3-12.4c1.3-4.6,2.2-11.8,2.2-21.9v-43.8c0-10.4-1.3-17.5-2.7-21.9C249.5,94.4,244.2,89.9,236.3,89.9z M234,169.4
	c0,11-2.6,15.1-8.3,15.1c-3.3,0-7-1.7-10.3-5l0-66.4c3.3-3.3,7-5,10.3-5c5.7,0,8.3,3.2,8.3,14.2L234,169.4L234,169.4z"/>
<path id="u_1_" fill="#FFFFFF" d="M179.2,201.1h-20.8v-12c-7.9,9-14.6,13.6-21.9,13.6c-6.4,0-10.8-3-13.1-8.5
	c-1.4-3.3-2.3-8.5-2.3-16.1V91.6H142v81c0,4.6,0,6.6,0,7.7c0.5,3.1,1.8,4.2,4.4,4.2c4,0,7.6-3.5,12-9.7V91.6h20.8L179.2,201.1
	L179.2,201.1z"/>
<polygon id="T" fill="#FFFFFF" points="100.4,201.1 78.5,201.1 78.5,75.2 55.5,75.2 55.5,54.4 124.5,54.4 124.5,75.2 100.4,75.2 "/>
</svg>
