<svg version="1" xmlns="http://www.w3.org/2000/svg" width="1002.667" height="1002.667" viewBox="0 0 752.000000 752.000000"><path d="M214.2 81v53l2.7.1c1.4 0 65.6.1 142.7.2l140 .2.1-53.2V28.1l-35.4 35.2c-19.4 19.4-35.5 35.4-35.7 35.5-.3.2-16.5-15.7-36.1-35.2l-35.6-35.7-35.6 35.6-35.6 35.6-3-2.8c-1.6-1.5-17.7-17.5-35.7-35.6L214.2 28v53zM34.7 187.6c-.3.4-8.3.6-17.6.6H0V724h174.5v-79.6c0-87.4-.5-81 6-80.7 5.6.3 10 .3 13.5.1 2-.1 4.1.1 4.8.6.7.4 1.7.4 2.3 0 1.5-.9 44.3-.9 45.8 0 .6.4 1.6.4 2.2 0 1.5-.9 44.3-.9 45.8 0 .6.4 1.6.4 2.3 0 .7-.4 6-.7 11.8-.5 5.8.1 11.2.2 12 .1 9.5-.3 26.2 0 27.1.6.8.4.9.3.5-.4-.5-.9 0-.9 1.7-.3 1.4.6 2.8.7 3.1.4.5-.5 10-.6 25.6-.3 1.9 0 5.1-.1 7-.2 2-.1 4.1.1 4.8.6.7.4 1.7.4 2.3 0 1.5-.9 44.3-.9 45.8 0 .6.4 1.6.4 2.2 0 1.5-.9 44.3-.9 45.8 0 .6.4 1.6.4 2.3 0 1.4-.9 28.2-.9 29.7 0 .6.4 1.6.4 2.1.1.6-.4 15.3-.8 32.8-1 17.4-.1 32.8-.6 34.2-.9 1.4-.3 4.5-.8 7-1.1 6.9-.9 8.9-1.3 19.1-4 5.2-1.4 10.1-2.7 10.9-2.9 10.2-2.6 39.6-17 48.5-23.8 15.6-11.8 34.5-29.1 34.5-31.7 0-.6.4-1.1.9-1.1.8 0 15.1-18.5 15.1-19.5 0-.3 1.7-3.3 3.8-6.7 6.8-11.4 14.4-28.9 17.9-41.3.7-2.8 4.3-17.3 5-20.4.4-2 .8-17.6.8-34.6l-.1-31-3.6-13.7c-2-7.5-4.4-15.3-5.3-17.5-.9-2.1-1.8-4.6-2-5.6-.7-3-11.1-23.8-15.6-31.2-23.7-38.1-61.8-67.4-103.9-80-4.7-1.4-9.4-2.7-10.5-2.9-1.1-.3-4.2-.9-6.9-1.6-2.7-.6-6.8-1.3-9.1-1.6-2.4-.3-5.4-.7-6.6-1-2.2-.5-47.3-1.6-57.9-1.4-2.5.1-13.7.1-25 0-11.3 0-21.2-.1-22-.1h-50c-26.7 0-49.2 0-50 .1-1.1 0-48.2 0-59.5-.1-.5 0-3.2.1-6 .1-8 .1-50.1 0-58-.1-.5 0-2.8.1-5 .3-2.2.1-4.6-.1-5.3-.6-.6-.4-1.7-.4-2.4 0-.6.4-8.6.6-17.7.5-9.1-.1-17-.2-17.6-.2-1.6.1-45.9.1-47.5 0-.8 0-10.5.1-21.6.2-11 .1-20.6-.1-21.2-.5-.7-.4-1.7-.4-2.4 0-.6.4-8.6.6-17.7.5-9.1-.1-17-.2-17.6-.2-25 .3-46.5.2-47.3-.2-.5-.4-1.2-.4-1.5-.1zm496.1 134.8c.7.4 1.6.6 1.8.3.3-.3 2-.1 3.7.4 1.8.6 4.1 1.2 5.2 1.4 2.9.6 11.8 4.8 13.3 6.2.7.7 1.7 1.3 2.2 1.3 1.1 0 11 9.9 11 11 0 .5.6 1.5 1.3 2.2 2.8 3 7.4 16.3 7.7 22.3.4 10.1 0 18.9-1 21.5-.1.3-.2.8-.1 1.2.2 1.6-4.4 12.5-6.8 16.2-3.3 5-5.9 7.6-12.4 12.5-4.5 3.3-9.5 5.8-10.5 5.2-.1-.1-1.5.5-3.1 1.4-1.6.8-4.3 1.6-6.1 1.7-1.7.1-3.4.6-3.6 1-.3.4-81.1.8-179.7.8H174.5l.1-53.2c.1-29.3.2-53.6.3-53.9.2-.9 354.5-.5 355.9.5z"/></svg>