<?xml version="1.0" encoding="utf-8"?>
<!-- Generator: Adobe Illustrator 19.2.1, SVG Export Plug-In . SVG Version: 6.00 Build 0)  -->
<svg version="1.1" id="Layer_1" xmlns="http://www.w3.org/2000/svg" xmlns:xlink="http://www.w3.org/1999/xlink" x="0px" y="0px"
	 viewBox="0 0 20.2 20.2" style="enable-background:new 0 0 20.2 20.2;" xml:space="preserve">
<style type="text/css">
	.st0{fill:none;}
	.st1{fill:#1E1E1E;}
</style>
<g>
	<path class="st0" d="M0,0h20.2v20.2H0V0z"/>
	<path class="st1" d="M16.8,15.1c0.9,0,1.7-0.8,1.7-1.7l0-9.2c0-0.9-0.8-1.7-1.7-1.7H3.4c-0.9,0-1.7,0.8-1.7,1.7v9.2
		c0,0.9,0.8,1.7,1.7,1.7H0c0,0.9,0.8,1.7,1.7,1.7h16.8c0.9,0,1.7-0.8,1.7-1.7H16.8z M3.4,4.2h13.4v9.2H3.4V4.2z M10.1,16
		c-0.5,0-0.8-0.4-0.8-0.8s0.4-0.8,0.8-0.8c0.5,0,0.8,0.4,0.8,0.8S10.5,16,10.1,16z"/>
</g>
</svg>
